<svg width="780.000000" height="200.000000" viewBox="0 0 780 200" fill="none" xmlns="http://www.w3.org/2000/svg" xmlns:xlink="http://www.w3.org/1999/xlink">
	<desc>
			Created with Pixso.
	</desc>
	<rect id="画板 1" width="780.000000" height="200.000000" fill="#FFFFFF"/>
	<g clip-path="url(#clip3_1)">
		<path id="小镇做题家" d="M719.608 81.7656L672.463 81.7656L672.463 91.0469L665.977 91.0469L665.977 75.7188L692.326 75.7188C691.676 74.0488 690.885 72.4668 690.094 71.0254L697.072 69.0215C698.373 71.0254 699.604 73.627 700.465 75.7188L726.463 75.7188L726.463 91.0469L719.608 91.0469L719.608 81.7656ZM584.977 83.207L584.977 88.8848L581.742 88.8848C580.441 100.486 578.35 110.049 574.606 117.977C577.277 123.021 580.793 127.258 585.557 130.281C584.326 131.512 582.393 133.955 581.514 135.607C577.277 132.514 573.955 128.418 571.301 123.883C568.119 128.559 564.234 132.443 559.277 135.695C558.486 134.535 556.395 132.162 555.094 131.072C560.859 127.697 565.184 123.303 568.277 117.695C565.975 112 564.463 105.883 563.443 99.9062C562.512 101.77 561.51 103.51 560.42 105.092C560.139 104.512 559.629 103.721 559.049 103L559.049 127.838L543.44 127.838L543.44 132.672L537.604 132.672L537.604 101.928L545.232 101.928L545.232 89.1836L536.022 89.1836L536.022 83.1367L545.232 83.1367L545.232 70.5332L551.561 70.5332L551.561 83.1367L560.139 83.1367L560.139 89.1836L551.561 89.1836L551.561 101.928L558.328 101.928C557.695 101.049 557.045 100.258 556.535 99.6953C561.352 92.418 564.164 81.1855 565.746 69.6719L571.793 70.7441C571.072 74.9277 570.352 79.1641 569.279 83.207L584.977 83.207ZM464.092 110.77L464.092 124.234L472.002 120.068C472.23 121.932 472.863 124.463 473.303 125.904C460.928 132.812 458.836 134.096 457.605 135.396C456.955 134.025 455.373 131.793 454.23 130.721C455.742 129.719 457.975 127.416 457.975 123.883L457.975 110.77L448.465 110.77L448.465 104.793L457.975 104.793L457.975 96.2324L452.35 96.2324L452.35 90.1855L472.002 90.1855L472.002 96.2324L464.092 96.2324L464.092 104.793L473.373 104.793L473.373 110.77L464.092 110.77ZM457.096 83.2773C455.672 85.791 454.002 88.0938 452.35 90.1855C451.488 91.2578 450.627 92.207 449.695 93.0684C449.186 91.6973 447.533 88.1641 446.443 86.6523C450.697 82.4863 454.512 76.2812 456.674 69.7422L462.58 71.5352C462 73.416 461.209 75.3496 460.348 77.1602L473.232 77.1602L473.232 83.2773L457.096 83.2773ZM508.582 85.4395L508.582 116.746L512.906 116.746L512.906 122.441L486.258 122.441L491.443 125.975C487.488 129.561 481.582 133.305 476.906 135.766C475.904 134.465 474.023 132.514 472.723 131.301C477.117 129.068 482.742 125.395 485.836 122.441L473.092 122.441L473.092 116.746L477.979 116.746L477.979 85.4395L487.629 85.4395C487.998 84.0684 488.279 82.6973 488.561 81.1855L475.395 81.1855L475.395 75.7891L489.51 75.7891C489.861 73.6973 490.16 71.6055 490.371 69.8125L497.49 70.1641C497.139 71.9746 496.77 73.9082 496.348 75.7891L511.395 75.7891L511.395 81.1855L495.047 81.1855C494.607 82.6973 494.256 84.0684 493.904 85.4395L508.582 85.4395ZM517.512 98.1836C523.488 91.2578 528.955 80.6758 532.277 69.9531L538.535 71.6758C536.883 76.5801 534.932 81.3965 532.699 86.1602L532.699 135.695L526.582 135.695L526.582 97.3047C524.789 100.258 522.838 102.93 520.904 105.232C520.254 103.58 518.514 99.9062 517.512 98.1836ZM404.607 126.836L404.607 70.6035L411.885 70.6035L411.885 126.836C411.885 131.301 410.742 133.234 407.93 134.395C405.047 135.467 400.441 135.695 393.604 135.607C393.164 133.744 392.021 130.58 390.932 128.629C395.836 128.84 401.092 128.84 402.604 128.77C404.115 128.699 404.607 128.277 404.607 126.836ZM595.559 72.4668L620.608 72.4668L620.608 95.3711L595.559 95.3711L595.559 72.4668ZM626.443 114.162L626.443 84.209L634.371 84.209C635.092 82.4863 635.813 80.1836 636.463 78.0918L623.859 78.0918L623.859 72.7656L656.608 72.7656L656.608 78.0918L643.002 78.0918C642.141 80.2539 641.209 82.416 640.348 84.209L653.514 84.209L653.514 113.863L647.766 113.863L647.766 89.1836L631.998 89.1836L631.998 114.162L626.443 114.162ZM601.535 81.6953L614.35 81.6953L614.35 77.1602L601.535 77.1602L601.535 81.6953ZM601.535 90.6953L614.35 90.6953L614.35 86.1602L601.535 86.1602L601.535 90.6953ZM434.859 121.211C433.348 112.721 427.652 99.3262 421.816 88.9551L428.303 86.5117C434.42 96.5137 440.326 109.627 442.119 118.328L434.859 121.211ZM374.443 116.465C380.49 108.977 384.305 96.584 385.975 87.0918L393.533 88.4629C391.16 98.9746 387.117 112 380.859 119.998C379.207 118.768 376.254 117.115 374.443 116.465ZM701.467 106.744C706.652 103.281 712.418 98.8164 716.162 95.2305L721.629 99.6074C718.535 102.139 715.002 104.652 711.486 107.096C714.58 116.096 720.908 123.812 729.486 127.258C728.045 128.418 726.024 131.002 725.092 132.672C716.233 128.559 709.975 120.49 706.231 110.488C705.281 111.068 704.279 111.648 703.348 112.211C705.651 121.141 703.928 129.719 700.026 132.742C697.723 134.975 695.649 135.607 692.256 135.607C690.604 135.695 688.442 135.607 686.279 135.467C686.139 133.674 685.559 131.072 684.486 129.209C687 129.42 689.303 129.561 690.885 129.561C692.695 129.561 693.979 129.35 695.209 127.979C696.932 126.537 698.022 122.652 697.723 117.766C689.514 123.812 677.719 129.49 667.77 132.443C667.049 130.791 665.537 128.348 664.254 126.906C675.627 124.234 689.443 117.836 696.58 111.561C696.141 110.207 695.719 108.906 695.068 107.535C687.932 112.211 677.139 117.045 668.789 119.699C667.998 118.188 666.627 115.885 665.397 114.443C674.256 112.439 686.139 107.535 692.397 103.141C691.606 101.998 690.674 100.838 689.584 99.6953C683.256 103.141 676.049 105.883 669.281 107.746C668.649 106.463 666.908 103.721 665.766 102.42C674.326 100.557 683.537 97.3926 690.164 93.209L675.557 93.209L675.557 87.4434L716.303 87.4434L716.303 93.209L699.234 93.209C697.793 94.5098 696.211 95.582 694.559 96.7422C697.652 99.6953 699.885 103.141 701.467 106.744ZM571.441 110.629C573.744 104.441 575.045 97.1641 575.906 88.8848L567.697 88.8848C567.557 89.4648 567.416 90.0449 567.188 90.6074C567.908 97.0938 569.209 104.16 571.441 110.629ZM502.395 93.7891L502.395 89.9746L483.955 89.9746L483.955 93.7891L502.395 93.7891ZM620.906 123.303C635.813 118.768 636.955 110.207 637.395 92.3477L642.932 92.3477C642.44 112.07 640.488 122.441 624.07 127.697C623.49 126.467 622.049 124.305 620.906 123.303ZM483.955 101.137L502.395 101.137L502.395 97.5332L483.955 97.5332L483.955 101.137ZM622.559 117.045L611.397 117.045L611.397 126.607C616.442 128.418 622.77 128.77 630.328 128.77C634.16 128.77 652.442 128.77 657.258 128.629C656.326 130 655.395 132.514 655.026 134.184L630.258 134.184C615.861 134.184 606.141 132.672 600.094 123.953C599.022 128.488 597.51 132.443 595.049 135.607C594.188 134.746 591.674 133.094 590.373 132.443C594.838 126.977 596.068 118.416 596.35 108.326L601.817 108.766C601.676 111.719 601.465 114.443 601.184 117.115C602.397 119.699 603.838 121.721 605.719 123.232L605.719 105.232L591.744 105.232L591.744 100.117L624 100.117L624 105.232L611.397 105.232L611.397 112L622.559 112L622.559 117.045ZM502.395 105.021L483.955 105.021L483.955 108.836L502.395 108.836L502.395 105.021ZM543.44 122.072L553.16 122.072L553.16 107.676L543.44 107.676L543.44 122.072ZM502.395 112.65L483.955 112.65L483.955 116.746L502.395 116.746L502.395 112.65ZM644.162 113.441C648.328 116.324 653.883 120.648 656.695 123.443L652.723 127.557C650.068 124.674 644.672 120.139 640.348 116.975L644.162 113.441ZM508.002 135.766C505.277 133.164 499.652 129.209 495.188 126.537L499.441 122.582C503.836 124.955 509.584 128.699 512.467 131.301L508.002 135.766Z" fill="#143D8FFF"/>
		<circle id="椭圆 1" cx="123.000000" cy="100.000000" r="75.000000" fill="#143D8F"/>
		<path id="P" d="M100.216 163L84.2168 163L84.2168 36.9395L120.162 36.9395C148.549 36.9395 167.445 46.3877 167.445 73.8926C167.445 100.558 148.549 112.945 121.002 112.945L100.216 112.945L100.216 163ZM100.216 49.8311L100.216 100.054L118.944 100.054C141.116 100.054 151.614 91.9492 151.614 73.8926C151.614 55.668 140.444 49.8311 118.272 49.8311L100.216 49.8311Z" fill="#FFFFFFFF"/>
		<path id="R" d="M270.227 107.78L302.561 163L284.504 163L253.892 109.502L231.216 109.502L231.216 163L215.217 163L215.217 36.9395L254.773 36.9395C280.389 36.9395 298.781 46.0518 298.781 72.3389C298.781 91.9492 287.443 103.665 270.227 107.78ZM252.338 49.8311L231.216 49.8311L231.216 96.6104L252.338 96.6104C272.116 96.6104 282.95 88.7158 282.95 72.3389C282.95 55.668 272.116 49.8311 252.338 49.8311Z" fill="#143D8FFF"/>
	</g>
	<defs>
		<clipPath id="clip3_1">
			<rect id="画板 1" width="780.000000" height="200.000000" fill="white"/>
		</clipPath>
	</defs>
</svg>
